<mxfile host="app.diagrams.net" modified="2021-06-09T01:22:27.447Z" agent="5.0 (Macintosh; Intel Mac OS X 10_15_7) AppleWebKit/537.36 (KHTML, like Gecko) Chrome/91.0.4472.77 Safari/537.36" etag="PNdNTrLPlFJmBZAngri6" version="14.7.6" type="github">
  <diagram id="R2lEEEUBdFMjLlhIrx00" name="Page-1">
    <mxGraphModel dx="2480" dy="985" grid="1" gridSize="10" guides="1" tooltips="1" connect="1" arrows="1" fold="1" page="1" pageScale="1" pageWidth="850" pageHeight="1100" background="none" math="0" shadow="0" extFonts="Permanent Marker^https://fonts.googleapis.com/css?family=Permanent+Marker">
      <root>
        <mxCell id="0" />
        <mxCell id="1" parent="0" />
        <mxCell id="iqtrtNtOU-YQ3n1kmFNO-46" style="edgeStyle=orthogonalEdgeStyle;rounded=0;jumpStyle=none;orthogonalLoop=1;jettySize=auto;html=1;entryX=0.5;entryY=0;entryDx=0;entryDy=0;strokeColor=#000000;startArrow=ERone;startFill=0;endArrow=ERzeroToMany;endFill=1;" parent="1" source="C-vyLk0tnHw3VtMMgP7b-23" target="iqtrtNtOU-YQ3n1kmFNO-4" edge="1">
          <mxGeometry relative="1" as="geometry" />
        </mxCell>
        <mxCell id="iqtrtNtOU-YQ3n1kmFNO-47" style="edgeStyle=orthogonalEdgeStyle;rounded=0;jumpStyle=none;orthogonalLoop=1;jettySize=auto;html=1;startArrow=ERone;startFill=0;endArrow=ERzeroToMany;endFill=1;strokeColor=#000000;" parent="1" source="C-vyLk0tnHw3VtMMgP7b-23" target="iqtrtNtOU-YQ3n1kmFNO-14" edge="1">
          <mxGeometry relative="1" as="geometry">
            <Array as="points">
              <mxPoint x="480" y="280" />
              <mxPoint x="180" y="280" />
            </Array>
          </mxGeometry>
        </mxCell>
        <mxCell id="iqtrtNtOU-YQ3n1kmFNO-48" style="edgeStyle=orthogonalEdgeStyle;rounded=0;jumpStyle=none;orthogonalLoop=1;jettySize=auto;html=1;entryX=0.5;entryY=0;entryDx=0;entryDy=0;startArrow=ERone;startFill=0;endArrow=ERzeroToMany;endFill=1;strokeColor=#000000;" parent="1" source="C-vyLk0tnHw3VtMMgP7b-23" target="iqtrtNtOU-YQ3n1kmFNO-23" edge="1">
          <mxGeometry relative="1" as="geometry">
            <Array as="points">
              <mxPoint x="480" y="280" />
              <mxPoint x="-20" y="280" />
            </Array>
          </mxGeometry>
        </mxCell>
        <mxCell id="iqtrtNtOU-YQ3n1kmFNO-49" style="edgeStyle=orthogonalEdgeStyle;rounded=0;jumpStyle=none;orthogonalLoop=1;jettySize=auto;html=1;entryX=0.5;entryY=0;entryDx=0;entryDy=0;startArrow=ERone;startFill=0;endArrow=ERzeroToMany;endFill=1;strokeColor=#000000;" parent="1" source="C-vyLk0tnHw3VtMMgP7b-23" target="iqtrtNtOU-YQ3n1kmFNO-30" edge="1">
          <mxGeometry relative="1" as="geometry">
            <Array as="points">
              <mxPoint x="480" y="280" />
              <mxPoint x="-220" y="280" />
            </Array>
          </mxGeometry>
        </mxCell>
        <mxCell id="iqtrtNtOU-YQ3n1kmFNO-50" style="edgeStyle=orthogonalEdgeStyle;rounded=0;jumpStyle=none;orthogonalLoop=1;jettySize=auto;html=1;entryX=0.5;entryY=0;entryDx=0;entryDy=0;startArrow=ERone;startFill=0;endArrow=ERzeroToMany;endFill=1;strokeColor=#000000;" parent="1" source="C-vyLk0tnHw3VtMMgP7b-23" target="iqtrtNtOU-YQ3n1kmFNO-18" edge="1">
          <mxGeometry relative="1" as="geometry">
            <Array as="points">
              <mxPoint x="480" y="280" />
              <mxPoint x="580" y="280" />
            </Array>
          </mxGeometry>
        </mxCell>
        <mxCell id="iqtrtNtOU-YQ3n1kmFNO-51" style="edgeStyle=orthogonalEdgeStyle;rounded=0;jumpStyle=none;orthogonalLoop=1;jettySize=auto;html=1;startArrow=ERone;startFill=0;endArrow=ERzeroToMany;endFill=1;strokeColor=#000000;" parent="1" source="C-vyLk0tnHw3VtMMgP7b-23" target="iqtrtNtOU-YQ3n1kmFNO-8" edge="1">
          <mxGeometry relative="1" as="geometry">
            <Array as="points">
              <mxPoint x="480" y="280" />
              <mxPoint x="780" y="280" />
            </Array>
          </mxGeometry>
        </mxCell>
        <mxCell id="iqtrtNtOU-YQ3n1kmFNO-52" style="edgeStyle=orthogonalEdgeStyle;rounded=0;jumpStyle=none;orthogonalLoop=1;jettySize=auto;html=1;startArrow=ERone;startFill=0;endArrow=ERzeroToMany;endFill=1;strokeColor=#000000;entryX=0.5;entryY=0;entryDx=0;entryDy=0;" parent="1" source="C-vyLk0tnHw3VtMMgP7b-23" target="iqtrtNtOU-YQ3n1kmFNO-34" edge="1">
          <mxGeometry relative="1" as="geometry">
            <mxPoint x="1120" y="310" as="targetPoint" />
            <Array as="points">
              <mxPoint x="480" y="280" />
              <mxPoint x="980" y="280" />
            </Array>
          </mxGeometry>
        </mxCell>
        <mxCell id="iqtrtNtOU-YQ3n1kmFNO-53" style="edgeStyle=orthogonalEdgeStyle;rounded=0;jumpStyle=none;orthogonalLoop=1;jettySize=auto;html=1;entryX=0.5;entryY=0;entryDx=0;entryDy=0;startArrow=ERone;startFill=0;endArrow=ERzeroToMany;endFill=1;strokeColor=#000000;" parent="1" source="C-vyLk0tnHw3VtMMgP7b-23" target="iqtrtNtOU-YQ3n1kmFNO-38" edge="1">
          <mxGeometry relative="1" as="geometry">
            <Array as="points">
              <mxPoint x="480" y="280" />
              <mxPoint x="1180" y="280" />
            </Array>
          </mxGeometry>
        </mxCell>
        <mxCell id="C-vyLk0tnHw3VtMMgP7b-23" value="Residents" style="shape=table;startSize=30;container=1;collapsible=1;childLayout=tableLayout;fixedRows=1;rowLines=0;fontStyle=1;align=center;resizeLast=1;" parent="1" vertex="1">
          <mxGeometry x="400" y="40" width="160" height="200" as="geometry" />
        </mxCell>
        <mxCell id="C-vyLk0tnHw3VtMMgP7b-27" value="" style="shape=partialRectangle;collapsible=0;dropTarget=0;pointerEvents=0;fillColor=none;points=[[0,0.5],[1,0.5]];portConstraint=eastwest;top=0;left=0;right=0;bottom=0;" parent="C-vyLk0tnHw3VtMMgP7b-23" vertex="1">
          <mxGeometry y="30" width="160" height="160" as="geometry" />
        </mxCell>
        <mxCell id="C-vyLk0tnHw3VtMMgP7b-28" value="name &#xa;birthday&#xa;gender &#xa;height&#xa;weight&#xa;allergies&#xa;medical history&#xa;preference&#xa;life history&#xa;remarks" style="shape=partialRectangle;overflow=hidden;connectable=0;fillColor=none;top=0;left=0;bottom=0;right=0;" parent="C-vyLk0tnHw3VtMMgP7b-27" vertex="1">
          <mxGeometry width="90" height="160" as="geometry" />
        </mxCell>
        <mxCell id="C-vyLk0tnHw3VtMMgP7b-29" value="strings&#xa;date&#xa;strings&#xa;integer&#xa;integer&#xa;strings&#xa;strings&#xa;strings&#xa;strings&#xa;strings" style="shape=partialRectangle;overflow=hidden;connectable=0;fillColor=none;top=0;left=0;bottom=0;right=0;align=left;spacingLeft=6;" parent="C-vyLk0tnHw3VtMMgP7b-27" vertex="1">
          <mxGeometry x="90" width="70" height="160" as="geometry" />
        </mxCell>
        <mxCell id="iqtrtNtOU-YQ3n1kmFNO-4" value="Meal" style="shape=table;startSize=30;container=1;collapsible=1;childLayout=tableLayout;fixedRows=1;rowLines=0;fontStyle=1;align=center;resizeLast=1;" parent="1" vertex="1">
          <mxGeometry x="300" y="320" width="160" height="200" as="geometry" />
        </mxCell>
        <mxCell id="iqtrtNtOU-YQ3n1kmFNO-5" value="" style="shape=partialRectangle;collapsible=0;dropTarget=0;pointerEvents=0;fillColor=none;points=[[0,0.5],[1,0.5]];portConstraint=eastwest;top=0;left=0;right=0;bottom=0;" parent="iqtrtNtOU-YQ3n1kmFNO-4" vertex="1">
          <mxGeometry y="30" width="160" height="160" as="geometry" />
        </mxCell>
        <mxCell id="iqtrtNtOU-YQ3n1kmFNO-6" value="&#xa;staple&#xa;side dish&#xa;moisture&#xa;feeding&#xa;remarks&#xa;" style="shape=partialRectangle;overflow=hidden;connectable=0;fillColor=none;top=0;left=0;bottom=0;right=0;verticalAlign=middle;" parent="iqtrtNtOU-YQ3n1kmFNO-5" vertex="1">
          <mxGeometry width="80" height="160" as="geometry" />
        </mxCell>
        <mxCell id="iqtrtNtOU-YQ3n1kmFNO-7" value="integer&#xa;integer&#xa;integer&#xa;integer&#xa;strings" style="shape=partialRectangle;overflow=hidden;connectable=0;fillColor=none;top=0;left=0;bottom=0;right=0;align=left;spacingLeft=6;verticalAlign=middle;" parent="iqtrtNtOU-YQ3n1kmFNO-5" vertex="1">
          <mxGeometry x="80" width="80" height="160" as="geometry" />
        </mxCell>
        <mxCell id="iqtrtNtOU-YQ3n1kmFNO-8" value="excretion" style="shape=table;startSize=30;container=1;collapsible=1;childLayout=tableLayout;fixedRows=1;rowLines=0;fontStyle=1;align=center;resizeLast=1;" parent="1" vertex="1">
          <mxGeometry x="700" y="320" width="160" height="200" as="geometry" />
        </mxCell>
        <mxCell id="iqtrtNtOU-YQ3n1kmFNO-9" value="" style="shape=partialRectangle;collapsible=0;dropTarget=0;pointerEvents=0;fillColor=none;points=[[0,0.5],[1,0.5]];portConstraint=eastwest;top=0;left=0;right=0;bottom=0;" parent="iqtrtNtOU-YQ3n1kmFNO-8" vertex="1">
          <mxGeometry y="30" width="160" height="160" as="geometry" />
        </mxCell>
        <mxCell id="iqtrtNtOU-YQ3n1kmFNO-10" value="state&#xa;amount&#xa;remarks" style="shape=partialRectangle;overflow=hidden;connectable=0;fillColor=none;top=0;left=0;bottom=0;right=0;" parent="iqtrtNtOU-YQ3n1kmFNO-9" vertex="1">
          <mxGeometry width="80" height="160" as="geometry" />
        </mxCell>
        <mxCell id="iqtrtNtOU-YQ3n1kmFNO-11" value="strings&#xa;integer&#xa;strings" style="shape=partialRectangle;overflow=hidden;connectable=0;fillColor=none;top=0;left=0;bottom=0;right=0;align=left;spacingLeft=6;" parent="iqtrtNtOU-YQ3n1kmFNO-9" vertex="1">
          <mxGeometry x="80" width="80" height="160" as="geometry" />
        </mxCell>
        <mxCell id="iqtrtNtOU-YQ3n1kmFNO-14" value="medicines" style="shape=table;startSize=30;container=1;collapsible=1;childLayout=tableLayout;fixedRows=1;rowLines=0;fontStyle=1;align=center;resizeLast=1;" parent="1" vertex="1">
          <mxGeometry x="100" y="320" width="160" height="200" as="geometry" />
        </mxCell>
        <mxCell id="iqtrtNtOU-YQ3n1kmFNO-15" value="" style="shape=partialRectangle;collapsible=0;dropTarget=0;pointerEvents=0;fillColor=none;points=[[0,0.5],[1,0.5]];portConstraint=eastwest;top=0;left=0;right=0;bottom=0;" parent="iqtrtNtOU-YQ3n1kmFNO-14" vertex="1">
          <mxGeometry y="30" width="160" height="160" as="geometry" />
        </mxCell>
        <mxCell id="iqtrtNtOU-YQ3n1kmFNO-16" value="name&#xa; assortment &#xa;amount&#xa;" style="shape=partialRectangle;overflow=hidden;connectable=0;fillColor=none;top=0;left=0;bottom=0;right=0;" parent="iqtrtNtOU-YQ3n1kmFNO-15" vertex="1">
          <mxGeometry width="80" height="160" as="geometry" />
        </mxCell>
        <mxCell id="iqtrtNtOU-YQ3n1kmFNO-17" value="strings&#xa;strings&#xa;integer" style="shape=partialRectangle;overflow=hidden;connectable=0;fillColor=none;top=0;left=0;bottom=0;right=0;align=left;spacingLeft=6;" parent="iqtrtNtOU-YQ3n1kmFNO-15" vertex="1">
          <mxGeometry x="80" width="80" height="160" as="geometry" />
        </mxCell>
        <mxCell id="iqtrtNtOU-YQ3n1kmFNO-18" value="vital sign" style="shape=table;startSize=30;container=1;collapsible=1;childLayout=tableLayout;fixedRows=1;rowLines=0;fontStyle=1;align=center;resizeLast=1;" parent="1" vertex="1">
          <mxGeometry x="500" y="320" width="160" height="200" as="geometry" />
        </mxCell>
        <mxCell id="iqtrtNtOU-YQ3n1kmFNO-19" value="" style="shape=partialRectangle;collapsible=0;dropTarget=0;pointerEvents=0;fillColor=none;points=[[0,0.5],[1,0.5]];portConstraint=eastwest;top=0;left=0;right=0;bottom=0;" parent="iqtrtNtOU-YQ3n1kmFNO-18" vertex="1">
          <mxGeometry y="30" width="160" height="160" as="geometry" />
        </mxCell>
        <mxCell id="iqtrtNtOU-YQ3n1kmFNO-20" value="temperature&#xa;blood pressure&#xa;pulse&#xa;Saturation&#xa;remarks" style="shape=partialRectangle;overflow=hidden;connectable=0;fillColor=none;top=0;left=0;bottom=0;right=0;" parent="iqtrtNtOU-YQ3n1kmFNO-19" vertex="1">
          <mxGeometry width="80" height="160" as="geometry" />
        </mxCell>
        <mxCell id="iqtrtNtOU-YQ3n1kmFNO-21" value="integer&#xa;integer&#xa;integer&#xa;integer&#xa;strings" style="shape=partialRectangle;overflow=hidden;connectable=0;fillColor=none;top=0;left=0;bottom=0;right=0;align=left;spacingLeft=6;" parent="iqtrtNtOU-YQ3n1kmFNO-19" vertex="1">
          <mxGeometry x="80" width="80" height="160" as="geometry" />
        </mxCell>
        <mxCell id="iqtrtNtOU-YQ3n1kmFNO-23" value="sleep" style="shape=table;startSize=30;container=1;collapsible=1;childLayout=tableLayout;fixedRows=1;rowLines=0;fontStyle=1;align=center;resizeLast=1;" parent="1" vertex="1">
          <mxGeometry x="-100" y="320" width="160" height="200" as="geometry" />
        </mxCell>
        <mxCell id="iqtrtNtOU-YQ3n1kmFNO-24" value="" style="shape=partialRectangle;collapsible=0;dropTarget=0;pointerEvents=0;fillColor=none;points=[[0,0.5],[1,0.5]];portConstraint=eastwest;top=0;left=0;right=0;bottom=0;" parent="iqtrtNtOU-YQ3n1kmFNO-23" vertex="1">
          <mxGeometry y="30" width="160" height="160" as="geometry" />
        </mxCell>
        <mxCell id="iqtrtNtOU-YQ3n1kmFNO-25" value="state&#xa;remarks" style="shape=partialRectangle;overflow=hidden;connectable=0;fillColor=none;top=0;left=0;bottom=0;right=0;" parent="iqtrtNtOU-YQ3n1kmFNO-24" vertex="1">
          <mxGeometry width="80" height="160" as="geometry" />
        </mxCell>
        <mxCell id="iqtrtNtOU-YQ3n1kmFNO-26" value="strings&#xa;strings" style="shape=partialRectangle;overflow=hidden;connectable=0;fillColor=none;top=0;left=0;bottom=0;right=0;align=left;spacingLeft=6;" parent="iqtrtNtOU-YQ3n1kmFNO-24" vertex="1">
          <mxGeometry x="80" width="80" height="160" as="geometry" />
        </mxCell>
        <mxCell id="iqtrtNtOU-YQ3n1kmFNO-30" value="bath" style="shape=table;startSize=30;container=1;collapsible=1;childLayout=tableLayout;fixedRows=1;rowLines=0;fontStyle=1;align=center;resizeLast=1;" parent="1" vertex="1">
          <mxGeometry x="-300" y="320" width="160" height="200" as="geometry" />
        </mxCell>
        <mxCell id="iqtrtNtOU-YQ3n1kmFNO-31" value="" style="shape=partialRectangle;collapsible=0;dropTarget=0;pointerEvents=0;fillColor=none;points=[[0,0.5],[1,0.5]];portConstraint=eastwest;top=0;left=0;right=0;bottom=0;" parent="iqtrtNtOU-YQ3n1kmFNO-30" vertex="1">
          <mxGeometry y="30" width="160" height="160" as="geometry" />
        </mxCell>
        <mxCell id="iqtrtNtOU-YQ3n1kmFNO-32" value="state&#xa;remarks&#xa;" style="shape=partialRectangle;overflow=hidden;connectable=0;fillColor=none;top=0;left=0;bottom=0;right=0;" parent="iqtrtNtOU-YQ3n1kmFNO-31" vertex="1">
          <mxGeometry width="80" height="160" as="geometry" />
        </mxCell>
        <mxCell id="iqtrtNtOU-YQ3n1kmFNO-33" value="strings&#xa;strings" style="shape=partialRectangle;overflow=hidden;connectable=0;fillColor=none;top=0;left=0;bottom=0;right=0;align=left;spacingLeft=6;" parent="iqtrtNtOU-YQ3n1kmFNO-31" vertex="1">
          <mxGeometry x="80" width="80" height="160" as="geometry" />
        </mxCell>
        <mxCell id="iqtrtNtOU-YQ3n1kmFNO-34" value="bath schedule" style="shape=table;startSize=30;container=1;collapsible=1;childLayout=tableLayout;fixedRows=1;rowLines=0;fontStyle=1;align=center;resizeLast=1;" parent="1" vertex="1">
          <mxGeometry x="900" y="320" width="160" height="200" as="geometry" />
        </mxCell>
        <mxCell id="iqtrtNtOU-YQ3n1kmFNO-35" value="" style="shape=partialRectangle;collapsible=0;dropTarget=0;pointerEvents=0;fillColor=none;points=[[0,0.5],[1,0.5]];portConstraint=eastwest;top=0;left=0;right=0;bottom=0;" parent="iqtrtNtOU-YQ3n1kmFNO-34" vertex="1">
          <mxGeometry y="30" width="160" height="160" as="geometry" />
        </mxCell>
        <mxCell id="iqtrtNtOU-YQ3n1kmFNO-36" value="state&#xa;time&#xa;room&#xa;date&#xa;name&#xa;unit" style="shape=partialRectangle;overflow=hidden;connectable=0;fillColor=none;top=0;left=0;bottom=0;right=0;" parent="iqtrtNtOU-YQ3n1kmFNO-35" vertex="1">
          <mxGeometry width="80" height="160" as="geometry" />
        </mxCell>
        <mxCell id="iqtrtNtOU-YQ3n1kmFNO-37" value="strings&#xa;integer&#xa;strings&#xa;date&#xa;strings&#xa;strings" style="shape=partialRectangle;overflow=hidden;connectable=0;fillColor=none;top=0;left=0;bottom=0;right=0;align=left;spacingLeft=6;" parent="iqtrtNtOU-YQ3n1kmFNO-35" vertex="1">
          <mxGeometry x="80" width="80" height="160" as="geometry" />
        </mxCell>
        <mxCell id="iqtrtNtOU-YQ3n1kmFNO-38" value="accident" style="shape=table;startSize=30;container=1;collapsible=1;childLayout=tableLayout;fixedRows=1;rowLines=0;fontStyle=1;align=center;resizeLast=1;" parent="1" vertex="1">
          <mxGeometry x="1100" y="320" width="160" height="200" as="geometry" />
        </mxCell>
        <mxCell id="iqtrtNtOU-YQ3n1kmFNO-39" value="" style="shape=partialRectangle;collapsible=0;dropTarget=0;pointerEvents=0;fillColor=none;points=[[0,0.5],[1,0.5]];portConstraint=eastwest;top=0;left=0;right=0;bottom=0;" parent="iqtrtNtOU-YQ3n1kmFNO-38" vertex="1">
          <mxGeometry y="30" width="160" height="160" as="geometry" />
        </mxCell>
        <mxCell id="iqtrtNtOU-YQ3n1kmFNO-40" value="name&#xa;place&#xa;cause&#xa;content&#xa;symptom&#xa;countermeasures&#xa;remarks" style="shape=partialRectangle;overflow=hidden;connectable=0;fillColor=none;top=0;left=0;bottom=0;right=0;" parent="iqtrtNtOU-YQ3n1kmFNO-39" vertex="1">
          <mxGeometry width="100" height="160" as="geometry" />
        </mxCell>
        <mxCell id="iqtrtNtOU-YQ3n1kmFNO-41" value="strings&#xa;strings&#xa;strings&#xa;strings&#xa;strings&#xa;strings" style="shape=partialRectangle;overflow=hidden;connectable=0;fillColor=none;top=0;left=0;bottom=0;right=0;align=left;spacingLeft=6;" parent="iqtrtNtOU-YQ3n1kmFNO-39" vertex="1">
          <mxGeometry x="100" width="60" height="160" as="geometry" />
        </mxCell>
      </root>
    </mxGraphModel>
  </diagram>
</mxfile>
